<svg width="20" height="20" viewBox="0 0 20 20" fill="none" xmlns="http://www.w3.org/2000/svg">
<path d="M19.8 10.2222C19.8 9.39996 19.7333 8.79996 19.5889 8.17774H10.2V11.8888H15.7111C15.6 12.8111 15 14.2 13.6667 15.1332L13.648 15.2575L16.6166 17.5572L16.8222 17.5777C18.7111 15.8333 19.8 13.2666 19.8 10.2222Z" fill="#4285F4"/>
<path d="M10.2 20C12.9 20 15.1666 19.1111 16.8222 17.5778L13.6667 15.1333C12.8222 15.7222 11.6889 16.1333 10.2 16.1333C7.55559 16.1333 5.31117 14.3889 4.51109 11.9778L4.39382 11.9877L1.30703 14.3766L1.26666 14.4889C2.91109 17.7555 6.28887 20 10.2 20Z" fill="#34A853"/>
<path d="M4.51108 11.9778C4.29997 11.3556 4.1778 10.6889 4.1778 10C4.1778 9.31108 4.29997 8.64444 4.49997 8.02222L4.49438 7.88971L1.36891 5.46244L1.26665 5.51108C0.588905 6.86665 0.200012 8.3889 0.200012 10C0.200012 11.6111 0.588905 13.1333 1.26665 14.4889L4.51108 11.9778Z" fill="#FBBC05"/>
<path d="M10.2 3.86664C12.0778 3.86664 13.3444 4.67775 14.0667 5.35557L16.8889 2.6C15.1556 0.988893 12.9 0 10.2 0C6.28887 0 2.91109 2.24443 1.26666 5.51107L4.49998 8.02221C5.31117 5.61111 7.55559 3.86664 10.2 3.86664Z" fill="#EB4335"/>
</svg>
