<svg width="23" height="24" viewBox="0 0 23 24" fill="none" xmlns="http://www.w3.org/2000/svg">
<path d="M12.49 1.21004C11.9433 0.663304 11.0568 0.663304 10.5101 1.21004L0.710099 11.01C0.163365 11.5568 0.163365 12.4432 0.710099 12.9899C1.25683 13.5367 2.14326 13.5367 2.69 12.9899L3.10005 12.5799V21.8C3.10005 22.5732 3.72685 23.2 4.50005 23.2H7.30005C8.07325 23.2 8.70005 22.5732 8.70005 21.8V19C8.70005 18.2268 9.32685 17.6 10.1 17.6H12.9C13.6732 17.6 14.3 18.2268 14.3 19V21.8C14.3 22.5732 14.9268 23.2 15.7 23.2H18.5C19.2732 23.2 19.9 22.5732 19.9 21.8V12.5799L20.3101 12.9899C20.8568 13.5367 21.7433 13.5367 22.29 12.9899C22.8367 12.4432 22.8367 11.5568 22.29 11.01L12.49 1.21004Z" fill="#D0973C"/>
</svg>
